<svg width="16" height="14" viewBox="0 0 16 14" fill="none" xmlns="http://www.w3.org/2000/svg">
<path d="M9.99197 0.984619C9.55074 0.984619 9.1452 1.02031 8.75751 1.09047C9.88612 1.32 10.8904 1.8677 11.7532 2.73354C12.9347 3.91754 13.515 5.33108 13.515 7.00862C13.515 8.65108 12.9347 10.064 11.7532 11.2486C10.8904 12.1138 9.88612 12.6615 8.75751 12.8935C9.1452 12.9803 9.55074 13.016 9.99197 13.016C11.6474 13.016 13.0572 12.4154 14.2221 11.2486C15.4037 10.064 15.984 8.65108 15.984 7.00862C15.984 5.33047 15.4037 3.91754 14.2221 2.73354C13.0572 1.56739 11.6474 0.984619 9.99197 0.984619Z" fill="#404040"/>
<path d="M1.77784 2.73354C0.59753 3.91754 0.0159912 5.33108 0.0159912 7.00862C0.0159912 8.65108 0.59753 10.064 1.77784 11.2486C2.94153 12.4154 4.36922 13.016 6.02584 13.016C7.68245 13.016 9.09292 12.4154 10.2566 11.2486C11.4351 10.064 12.0191 8.65108 12.0191 7.00862C12.0191 5.33047 11.4351 3.91754 10.2566 2.73354C9.09292 1.56739 7.68245 0.984619 6.02584 0.984619C4.36922 0.984619 2.94153 1.56739 1.77784 2.73354Z" fill="#404040"/>
<path d="M5.42704 2.45047V3.42216V3.77539C4.86273 3.84616 4.42212 4.04124 4.14027 4.3237C3.84058 4.58893 3.68119 4.94155 3.68119 5.38401C3.66396 5.77293 3.82212 6.10832 4.08673 6.40801C4.36919 6.72678 4.82704 7.0437 5.49719 7.39693C6.04366 7.68001 6.41289 7.90893 6.60735 8.12309C6.81904 8.33355 6.90704 8.58155 6.90704 8.8277C6.90704 9.2517 6.62458 9.46401 6.0615 9.46401C5.47996 9.46401 5.19812 9.2517 5.19812 8.86339V8.33355H3.64612V8.79386C3.64612 9.23509 3.78704 9.58955 4.10396 9.88862C4.40427 10.1539 4.84489 10.3489 5.42643 10.4185V10.6843C5.42643 11.1255 5.42643 11.4271 5.42643 11.5668H6.78335V10.6314V10.4185C7.36489 10.3489 7.8055 10.1532 8.10458 9.87139C8.42212 9.58893 8.56243 9.21724 8.56243 8.75693C8.56243 8.36739 8.43996 8.01601 8.15812 7.71509C7.89289 7.39632 7.4172 7.06155 6.74766 6.7077C6.2012 6.42524 5.83135 6.17785 5.6375 5.96616C5.42581 5.77232 5.3372 5.56001 5.3372 5.33047C5.3372 4.9237 5.60181 4.71139 6.16612 4.71139C6.7132 4.71139 6.99504 4.9237 6.99504 5.33047V5.59509H8.54581V5.40124C8.54581 4.96001 8.40489 4.58893 8.10519 4.30585C7.80612 4.02339 7.3655 3.84678 6.78396 3.77601V3.45847V2.45047H5.42704Z" fill="white"/>
</svg>
