<svg width="16" height="16" viewBox="0 0 16 16" fill="none" xmlns="http://www.w3.org/2000/svg">
<path d="M6.02644 9.49478V7.73355H0.143982V9.49478H6.02644Z" fill="#404040"/>
<path d="M0.143982 3.77661V5.55692H15.8369V3.77661H0.143982Z" fill="#404040"/>
<path d="M15.8375 0.353241H0.143982V2.13355H15.8369L15.8375 0.353241Z" fill="#404040"/>
<path d="M6.81598 11.1151C6.81598 12.3631 7.27013 13.4326 8.13906 14.3022C9.00798 15.1939 10.0923 15.6283 11.3372 15.6474C12.6012 15.6289 13.6455 15.1945 14.5335 14.3022C15.4215 13.4326 15.856 12.3637 15.856 11.1151C15.856 9.8511 15.4215 8.78156 14.5335 7.89295C13.6455 7.02156 12.6006 6.58649 11.3372 6.58649C10.0929 6.58649 9.00798 7.02218 8.13906 7.89295C7.27013 8.78156 6.81598 9.8511 6.81598 11.1151Z" fill="#404040"/>
<path d="M13.1317 12.3631L11.3557 11.8283V8.90033" stroke="white" stroke-width="0.790523" stroke-miterlimit="10" stroke-linecap="round" stroke-linejoin="round"/>
</svg>
