<svg width="14" height="16" viewBox="0 0 14 16" fill="none" xmlns="http://www.w3.org/2000/svg">
<path d="M8.94586 0.131073H5.05417C4.75878 0.329227 4.54155 0.645535 4.40309 1.12061H0.374169C0.256631 1.12061 0.177246 1.1803 0.177246 1.29907V2.86277C0.177246 2.98153 0.256631 3.04123 0.374169 3.06092H13.6259C13.7637 3.04123 13.8228 2.98153 13.8228 2.86277V1.29907C13.8228 1.1803 13.7631 1.12061 13.6259 1.12061H9.61725C9.45848 0.645535 9.24186 0.329227 8.94586 0.131073Z" fill="#404040"/>
<path d="M11.1385 15.8695C11.808 15.5908 12.1834 15.0966 12.2431 14.3834C12.2431 14.3643 12.2431 14.3452 12.2431 14.3237L12.8942 4.05045H1.12555L1.75755 14.3237C1.75755 14.3452 1.75755 14.3637 1.77663 14.3834C1.8357 15.0966 2.1914 15.5908 2.86278 15.8695H11.1385Z" fill="#404040"/>
</svg>
