<svg width="16" height="16" viewBox="0 0 16 16" fill="none" xmlns="http://www.w3.org/2000/svg">
<path d="M9.6923 0.242462H6.30768V2.78708C5.63876 3.00985 5.03814 3.34523 4.50338 3.81354L2.34276 2.45231L0.538452 5.33169L2.69907 6.69292C2.60984 7.11692 2.56553 7.54154 2.56553 8.00985C2.56553 8.50154 2.63138 9.01477 2.74399 9.46154L0.627683 10.8671L2.49907 13.704L4.63691 12.2751C5.14953 12.6985 5.70584 12.9877 6.30768 13.1889V15.7582H9.69291V13.168C10.3391 12.9668 10.9409 12.6314 11.4991 12.1618L13.68 13.5243L15.4621 10.6234L13.2775 9.28308C13.3908 8.85908 13.4326 8.45662 13.4326 8.00985C13.4326 7.47446 13.3686 7.00615 13.2566 6.55877L15.3735 5.13046L13.4788 2.296L11.3612 3.70215C10.8498 3.30031 10.2948 2.98769 9.69291 2.80862V0.242462H9.6923ZM4.79261 8.09969C4.79261 8.05539 4.79261 8.03262 4.79261 8.01046C4.79261 7.11754 5.10522 6.33723 5.72861 5.71139C6.35138 5.08554 7.10953 4.77354 7.99938 4.77354C8.8683 4.77354 9.62584 5.08554 10.2708 5.71139C10.8732 6.33723 11.184 7.05046 11.2055 7.89908C11.2055 7.92123 11.2055 7.94339 11.2055 7.98831V8.01046C11.2055 8.88185 10.8948 9.64 10.2708 10.2671C9.62522 10.8917 8.8683 11.2025 7.99938 11.2025C7.10953 11.2025 6.35076 10.8917 5.72861 10.2671C5.12738 9.66277 4.81599 8.92554 4.79261 8.09969Z" fill="#404040"/>
</svg>
