<svg width="16" height="14" viewBox="0 0 16 14" fill="none" xmlns="http://www.w3.org/2000/svg">
<path d="M7.14155 0.853535C6.56863 0.689843 5.7514 0.608612 4.68863 0.608612H0.110168V13.3914H4.68801C5.7514 13.3914 6.56863 13.3108 7.14094 13.1452C7.46832 13.0646 7.71325 12.8997 7.95817 12.6535V7.32861C7.79509 7.16307 7.55078 7.08246 7.30463 7C8.53171 6.67138 9.10401 5.7723 9.10401 4.21415C9.10401 3.31261 8.94032 2.57723 8.53171 2.00184C8.12309 1.4283 7.71386 1.01784 7.14155 0.853535ZM5.83325 4.45969C5.83325 4.86892 5.7514 5.19754 5.50709 5.44307C5.34217 5.68861 4.85294 5.8523 3.95263 5.8523H3.21663V3.14892H4.11694C4.85232 3.06646 5.34217 3.23077 5.50709 3.47569C5.7514 3.72246 5.83325 4.04923 5.83325 4.45969ZM3.21663 8.14584H3.95201C4.85232 8.14584 5.34217 8.312 5.50648 8.63815C5.75078 8.88307 5.83386 9.21415 5.83386 9.62523C5.83386 9.95138 5.75078 10.2788 5.50648 10.5243C5.34155 10.7698 4.85232 10.936 4.11632 10.936H3.21663V8.14584Z" fill="#404040"/>
<path d="M14.4185 7.24616V6.18155C14.4185 5.60678 14.1723 5.03447 13.7649 4.62462C13.3581 4.21416 12.7852 3.96924 12.2135 3.96924C11.6363 3.96924 11.0652 4.21416 10.6578 4.62462C10.2474 5.03447 10.0037 5.60739 10.0037 6.18155V7.24616H9.18522C9.02153 7.24616 8.85784 7.32862 8.69414 7.4917C8.6123 7.57355 8.53107 7.73847 8.53107 7.90216V12.5729C8.53107 12.7385 8.6123 12.8991 8.69414 12.984C8.85784 13.1452 9.02153 13.2259 9.18522 13.2259H15.232C15.4018 13.2259 15.5631 13.1452 15.7243 12.984C15.8092 12.8991 15.8898 12.7385 15.8898 12.5729V9.54032V7.90216C15.8898 7.73847 15.8092 7.57355 15.7243 7.4917C15.5631 7.32801 15.4025 7.24616 15.232 7.24616H14.4185ZM13.6 6.18093V7.24555H10.8234V6.18093C10.8234 5.7717 10.9846 5.44247 11.2301 5.19693C11.4751 4.95262 11.8018 4.78893 12.2135 4.78893C12.6203 4.78893 12.9465 4.95262 13.1926 5.19693C13.4345 5.44247 13.6 5.7717 13.6 6.18093ZM12.8621 10.1982C12.8621 10.4437 12.7858 10.6049 12.5403 10.7705L12.6209 11.3434H11.8831V10.7705C11.7218 10.6049 11.6369 10.4443 11.6369 10.1982C11.6369 10.032 11.7225 9.86708 11.8031 9.78647C11.8837 9.62524 12.0449 9.54093 12.2148 9.54093C12.376 9.54093 12.5409 9.62585 12.6215 9.78647C12.7858 9.86708 12.8621 10.032 12.8621 10.1982Z" fill="#404040"/>
</svg>
